<svg width="20" height="20" viewBox="0 0 20 20" fill="none" xmlns="http://www.w3.org/2000/svg">
<path fill-rule="evenodd" clip-rule="evenodd" d="M4.27273 1C3.40475 1 2.57232 1.33523 1.95856 1.93193C1.3448 2.52864 1 3.33795 1 4.18182V15.3182C1 16.1621 1.3448 16.9714 1.95856 17.5681C2.57232 18.1648 3.40475 18.5 4.27273 18.5H15.7273C16.5953 18.5 17.4277 18.1648 18.0414 17.5681C18.6552 16.9714 19 16.1621 19 15.3182V4.18182C19 3.33795 18.6552 2.52864 18.0414 1.93193C17.4277 1.33523 16.5953 1 15.7273 1H4.27273ZM3.45455 12.2811V7.36364H4.34636V7.91489C4.74073 7.62455 5.28073 7.36364 5.98436 7.36364C6.30918 7.36364 6.69045 7.45511 7.00382 7.64761C7.11836 7.71761 7.22964 7.8067 7.32618 7.9125C7.79075 7.55531 8.36617 7.36183 8.95845 7.36364C9.28327 7.36364 9.66536 7.45511 9.97873 7.64761C10.2978 7.84409 10.5948 8.18136 10.5948 8.6658V12.2811H9.703V8.665C9.703 8.57034 9.65309 8.47409 9.50173 8.38102C9.3378 8.2845 9.1501 8.23283 8.95845 8.23148C8.34809 8.23148 7.93082 8.51545 7.61991 8.81295V12.2811H6.72727V8.665C6.72727 8.57034 6.67818 8.47409 6.52682 8.38102C6.36289 8.2845 6.17519 8.23283 5.98355 8.23148C5.18173 8.23148 4.74482 8.7008 4.40445 9.06591L4.34718 9.12716V12.2811H3.45455ZM12.4415 10.2559H16.5455V9.82239C16.5453 9.24141 16.3334 8.67928 15.9475 8.23571C15.5616 7.79215 15.0265 7.49583 14.4372 7.39932C13.848 7.30282 13.2426 7.41237 12.7285 7.70853C12.2144 8.0047 11.8248 8.46834 11.6289 9.01719C11.4329 9.56605 11.4433 10.1646 11.6581 10.7068C11.8729 11.2489 12.2784 11.6995 12.8024 11.9787C13.3265 12.2579 13.9353 12.3476 14.5209 12.2318C15.1065 12.1161 15.631 11.8024 16.0014 11.3465L15.301 10.808C15.1142 11.0383 14.8656 11.2139 14.5826 11.3154C14.2996 11.417 13.9932 11.4405 13.6973 11.3833C13.4014 11.3262 13.1276 11.1907 12.9059 10.9917C12.6843 10.7928 12.5236 10.5381 12.4415 10.2559ZM14.0165 8.23148C13.6601 8.23136 13.3135 8.34433 13.0292 8.55323C12.7449 8.76213 12.5386 9.05553 12.4415 9.38886H15.5915C15.4944 9.05553 15.288 8.76213 15.0037 8.55323C14.7194 8.34433 14.3728 8.23136 14.0165 8.23148Z" fill="white"/>
</svg>
