<svg width="20" height="20" viewBox="0 0 20 20" fill="none" xmlns="http://www.w3.org/2000/svg">
<path d="M18.1 2H4.6C4.12261 2 3.66477 2.16857 3.32721 2.46863C2.98964 2.76869 2.8 3.17565 2.8 3.6V6H1V7.6H2.8V9.2H1V10.8H2.8V12.4H1V14H2.8V16.4C2.8 16.8243 2.98964 17.2313 3.32721 17.5314C3.66477 17.8314 4.12261 18 4.6 18H18.1C18.3387 18 18.5676 17.9157 18.7364 17.7657C18.9052 17.6157 19 17.4122 19 17.2V2.8C19 2.58783 18.9052 2.38434 18.7364 2.23431C18.5676 2.08429 18.3387 2 18.1 2ZM10.9 4.3992C12.3832 4.3992 13.6 5.48 13.6 6.7992C13.5979 7.43521 13.3127 8.04464 12.8069 8.49444C12.301 8.94425 11.6155 9.19789 10.9 9.2C9.4177 9.2 8.2 8.1176 8.2 6.7992C8.2 5.48 9.4177 4.3992 10.9 4.3992ZM16.3 14.8H5.5V14.2C5.5 12.4248 7.9345 10.6 10.9 10.6C13.8655 10.6 16.3 12.4248 16.3 14.2V14.8Z" fill="white"/>
</svg>
