<svg width="20" height="20" viewBox="0 0 20 20" fill="none" xmlns="http://www.w3.org/2000/svg">
<path d="M1 10.0222C1 9.72592 1.06136 9.45185 1.18409 9.2C1.30682 8.94815 1.47727 8.74074 1.69545 8.57778L5.78636 5.4C5.93636 5.28148 6.08991 5.19615 6.247 5.144C6.40409 5.09185 6.56418 5.06607 6.72727 5.06667C6.89036 5.06726 7.05073 5.09333 7.20836 5.14489C7.366 5.19644 7.51927 5.28148 7.66818 5.4L11.7591 8.57778C11.9773 8.74074 12.1477 8.94815 12.2705 9.2C12.3932 9.45185 12.4545 9.72592 12.4545 10.0222V16.2222C12.4545 16.7111 12.2945 17.1298 11.9743 17.4782C11.6541 17.8267 11.2687 18.0006 10.8182 18H10C9.55 18 9.16491 17.8261 8.84473 17.4782C8.52455 17.1304 8.36418 16.7117 8.36364 16.2222V14C8.36364 13.6296 8.24445 13.315 8.00609 13.056C7.76773 12.797 7.47782 12.6673 7.13636 12.6667H6.31818C5.97727 12.6667 5.68764 12.7964 5.44927 13.056C5.21091 13.3156 5.09145 13.6302 5.09091 14V16.2222C5.09091 16.7111 4.93082 17.1298 4.61064 17.4782C4.29045 17.8267 3.90509 18.0006 3.45455 18H2.63636C2.18636 18 1.80127 17.8261 1.48109 17.4782C1.16091 17.1304 1.00055 16.7117 1 16.2222V10.0222ZM19 3.77778V16.2222C19 16.7111 18.8399 17.1298 18.5197 17.4782C18.1995 17.8267 17.8142 18.0006 17.3636 18H14.9091C14.6773 18 14.4831 17.9147 14.3265 17.744C14.17 17.5733 14.0915 17.3624 14.0909 17.1111V9.13333C14.0909 8.83704 14.0328 8.56296 13.9166 8.31111C13.8005 8.05926 13.6335 7.85185 13.4159 7.68889L9.14091 4.35556C8.96364 4.20741 8.82045 4.02963 8.71136 3.82222C8.60227 3.61481 8.54773 3.40741 8.54773 3.2C8.54773 2.82963 8.65682 2.53719 8.875 2.32267C9.09318 2.10815 9.38636 2.00059 9.75454 2H17.3636C17.8136 2 18.199 2.17422 18.5197 2.52267C18.8405 2.87111 19.0005 3.28948 19 3.77778ZM14.5 7.33333H15.3182C15.4273 7.33333 15.5227 7.28889 15.6045 7.2C15.6864 7.11111 15.7273 7.00741 15.7273 6.88889V6C15.7273 5.88148 15.6864 5.77778 15.6045 5.68889C15.5227 5.6 15.4273 5.55556 15.3182 5.55556H14.5C14.3909 5.55556 14.2955 5.6 14.2136 5.68889C14.1318 5.77778 14.0909 5.88148 14.0909 6V6.88889C14.0909 7.00741 14.1318 7.11111 14.2136 7.2C14.2955 7.28889 14.3909 7.33333 14.5 7.33333ZM14.5 10.8889H15.3182C15.4273 10.8889 15.5227 10.8444 15.6045 10.7556C15.6864 10.6667 15.7273 10.563 15.7273 10.4444V9.55555C15.7273 9.43704 15.6864 9.33333 15.6045 9.24444C15.5227 9.15555 15.4273 9.11111 15.3182 9.11111H14.5C14.3909 9.11111 14.2955 9.15555 14.2136 9.24444C14.1318 9.33333 14.0909 9.43704 14.0909 9.55555V10.4444C14.0909 10.563 14.1318 10.6667 14.2136 10.7556C14.2955 10.8444 14.3909 10.8889 14.5 10.8889ZM14.5 14.4444H15.3182C15.4273 14.4444 15.5227 14.4 15.6045 14.3111C15.6864 14.2222 15.7273 14.1185 15.7273 14V13.1111C15.7273 12.9926 15.6864 12.8889 15.6045 12.8C15.5227 12.7111 15.4273 12.6667 15.3182 12.6667H14.5C14.3909 12.6667 14.2955 12.7111 14.2136 12.8C14.1318 12.8889 14.0909 12.9926 14.0909 13.1111V14C14.0909 14.1185 14.1318 14.2222 14.2136 14.3111C14.2955 14.4 14.3909 14.4444 14.5 14.4444Z" fill="white"/>
</svg>
