<svg width="20" height="20" viewBox="0 0 20 20" fill="none" xmlns="http://www.w3.org/2000/svg">
<path fill-rule="evenodd" clip-rule="evenodd" d="M1 2H14.5V4.82353H10.9V13.2941H8.65V15.1765H10V17.0588H5.49998V15.1765H6.84998V13.2941H1V2ZM10 5.74704L6.84998 3.84473L3.7 5.74704V9.55157L6.84998 11.4539L10 9.55157V5.74704ZM4.59999 9.00826V6.79232L6.40001 7.87872V10.0953L4.59999 9.00826ZM7.3 10.0953V7.87872L9.10001 6.79232V9.00826L7.3 10.0953ZM6.84998 4.93157L8.61574 5.99789L6.84998 7.0636L5.08426 5.99789L6.84998 4.93157ZM19 18V5.76473H11.8V18H19ZM13.6 7.64705H17.2V9.52942H13.6V7.64705ZM13.6 10.4706V16.1176H17.2V10.4706H13.6ZM14.5 14.2353H16.3V12.3529H14.5V14.2353Z" fill="white"/>
</svg>
