<svg width="20" height="20" viewBox="0 0 20 20" fill="none" xmlns="http://www.w3.org/2000/svg">
<path d="M4.88322 2V2.0034C3.88032 2.11208 2.99376 3.09021 2.99376 4.34006C2.99376 5.0329 3.27858 5.64424 3.69579 6.06878L4.10497 6.48312L3.47515 6.58162C2.92556 6.66992 2.52039 6.91785 2.18342 7.31182C1.84243 7.7024 1.58569 8.24581 1.40517 8.86733C1.07622 10.0085 1.00802 11.4044 1 12.6203H2.7651L3.24248 18H7.10564L7.52686 12.6203H9.20771C9.20771 11.3908 9.19568 9.97792 8.89481 8.82658C8.73434 8.19826 8.48562 7.65825 8.14464 7.26767C7.79964 6.88049 7.37441 6.63256 6.76064 6.55445L6.11879 6.46954L6.52396 6.0416C6.92512 5.61707 7.19389 5.01592 7.19389 4.34006C7.19389 3.0087 6.19902 2.0034 5.09182 2.0034C4.97548 2.0034 4.90328 2 4.88322 2ZM17.7564 2.2717C17.0664 2.2717 16.5128 2.73938 16.5128 3.32456C16.5128 3.90974 17.0664 4.37741 17.7564 4.37741C18.4464 4.37741 19 3.90974 19 3.32456C19 2.73938 18.4464 2.2717 17.7564 2.2717ZM12.5815 3.01889V4.64912H8.44952V5.26045H12.5815V10.6266H10.3751V11.238H12.5815V14.9739H8.44952V15.5852H12.5815V16.672H15.8228C15.8028 16.5736 15.7907 16.4717 15.7907 16.3664C15.7907 16.2611 15.8028 16.1592 15.8228 16.0607H13.3035V11.238H15.8228C15.8028 11.1395 15.7907 11.0376 15.7907 10.9323C15.7907 10.827 15.8028 10.7251 15.8228 10.6266H13.3035V3.63023H15.8228C15.8028 3.53105 15.7907 3.42883 15.7907 3.32456C15.7907 3.22029 15.8028 3.11806 15.8228 3.01889H12.5815ZM17.7564 9.87943C17.0664 9.87943 16.5128 10.3481 16.5128 10.9323C16.5128 11.5165 17.0664 11.9851 17.7564 11.9851C18.4464 11.9851 19 11.5165 19 10.9323C19 10.3481 18.4464 9.87943 17.7564 9.87943ZM17.7564 15.3135C17.0664 15.3135 16.5128 15.7822 16.5128 16.3664C16.5128 16.9505 17.0664 17.4192 17.7564 17.4192C18.4464 17.4192 19 16.9505 19 16.3664C19 15.7822 18.4464 15.3135 17.7564 15.3135Z" fill="white"/>
</svg>
